<svg xmlns="http://www.w3.org/2000/svg" viewBox="0 0 512 512" width="100%" height="100%">
  <defs>
    <radialGradient id="vibrantBg" cx="50%" cy="50%" r="65%">
      <stop offset="0%" stop-color="#00D2FF" /> <stop offset="60%" stop-color="#3A7BD5" /> <stop offset="100%" stop-color="#800080" /> </radialGradient>
    
    <linearGradient id="trunkGrad" x1="0%" y1="100%" x2="100%" y2="0%">
      <stop offset="0%" stop-color="#2E7D32" /> <stop offset="100%" stop-color="#00E676" /> </linearGradient>
  </defs>

  <rect width="512" height="512" rx="112" fill="url(#vibrantBg)" />

  <g transform="translate(0, 20)">
    <path d="M256,380 C256,330 245,290 230,260 C215,230 210,190 220,150 C225,130 235,110 256,90 C277,110 287,130 292,150 C302,190 297,230 282,260 C267,290 256,330 256,380 Z" 
          fill="url(#trunkGrad)" stroke="#111" stroke-width="2"/>

    <path d="M256,90 C235,60 235,30 256,10 C277,30 277,60 256,90 Z" fill="#76FF03" />

    <g transform="translate(170, 150) rotate(-10)">
      <path d="M0,0 C15,0 20,-10 25,-25 C30,-40 25,-55 10,-60 C0,-63 -15,-55 -25,-40 C-30,-25 -25,-5 0,0 Z" fill="#FF00FF" />
      <text x="0" y="-30" fill="#fff" font-family="monospace" font-size="30" font-weight="bold" text-anchor="middle">#</text>
    </g>

    <g transform="translate(340, 150) rotate(10)">
      <path d="M0,0 C-15,0 -20,-10 -25,-25 C-30,-40 -25,-55 -10,-60 C0,-63 15,-55 25,-40 C-30,-25 -25,-5 0,0 Z" fill="#00FFFF" />
      <text x="0" y="-30" fill="#fff" font-family="monospace" font-size="30" font-weight="bold" text-anchor="middle">**</text>
    </g>

    <g transform="translate(195, 230) rotate(5)">
      <path d="M0,0 C10,5 20,5 30,0 C40,-5 45,-15 45,-30 C45,-45 40,-55 30,-60 C20,-65 10,-65 0,-60 C-10,-55 -15,-45 -15,-30 C-15,-15 -10,-5 0,0 Z" fill="#FFFF00" />
      <text x="15" y="-30" fill="#222" font-family="monospace" font-size="28" font-weight="bold" text-anchor="middle">[]</text>
    </g>
    
    <path d="M220,378 C180,395 140,400 110,400" stroke="#4E342E" stroke-width="12" stroke-linecap="round" fill="none"/>
    <path d="M256,380 C256,400 256,415 256,420" stroke="#4E342E" stroke-width="14" stroke-linecap="round" fill="none"/>
    <path d="M292,378 C332,395 372,400 402,400" stroke="#4E342E" stroke-width="12" stroke-linecap="round" fill="none"/>
  </g>
</svg>
